<svg xmlns="http://www.w3.org/2000/svg" xmlns:xlink="http://www.w3.org/1999/xlink" width="500" zoomAndPan="magnify" viewBox="0 0 375 374.999991" height="500" preserveAspectRatio="xMidYMid meet" version="1.0"><defs><g/><clipPath id="id1"><path d="M 203 140 L 255.753906 140 L 255.753906 215 L 203 215 Z M 203 140 " clip-rule="nonzero"/></clipPath><clipPath id="id2"><path d="M 116 101.917969 L 181 101.917969 L 181 176 L 116 176 Z M 116 101.917969 " clip-rule="nonzero"/></clipPath><clipPath id="id3"><path d="M 160 101.917969 L 246 101.917969 L 246 140 L 160 140 Z M 160 101.917969 " clip-rule="nonzero"/></clipPath><clipPath id="id4"><path d="M 105.753906 139 L 159 139 L 159 213 L 105.753906 213 Z M 105.753906 139 " clip-rule="nonzero"/></clipPath><clipPath id="id5"><path d="M 180 178 L 245 178 L 245 251.917969 L 180 251.917969 Z M 180 178 " clip-rule="nonzero"/></clipPath><clipPath id="id6"><path d="M 115 214 L 201 214 L 201 251.917969 L 115 251.917969 Z M 115 214 " clip-rule="nonzero"/></clipPath><clipPath id="id7"><path d="M 149.246094 145.410156 L 212.226562 145.410156 L 212.226562 208.410156 L 149.246094 208.410156 Z M 149.246094 145.410156 " clip-rule="nonzero"/></clipPath></defs><g clip-path="url(#id1)"><path fill="#1a1a1a" d="M 245.746094 214.371094 C 252.109375 203.351562 255.753906 190.558594 255.753906 176.917969 C 255.753906 163.847656 252.40625 151.558594 246.527344 140.859375 L 203.300781 140.859375 L 245.746094 214.371094 " fill-opacity="1" fill-rule="nonzero"/></g><g clip-path="url(#id2)"><path fill="#1a1a1a" d="M 138.25 175.417969 L 180.679688 101.917969 C 153.546875 101.945312 129.785156 116.378906 116.636719 137.984375 L 138.25 175.417969 " fill-opacity="1" fill-rule="nonzero"/></g><g clip-path="url(#id3)"><path fill="#1a1a1a" d="M 160.800781 139.359375 L 245.683594 139.359375 C 232.964844 117.421875 209.445312 102.523438 182.402344 101.9375 L 160.800781 139.359375 " fill-opacity="1" fill-rule="nonzero"/></g><g clip-path="url(#id4)"><path fill="#1a1a1a" d="M 158.203125 212.976562 L 115.761719 139.464844 C 109.398438 150.484375 105.753906 163.277344 105.753906 176.917969 C 105.753906 189.988281 109.097656 202.277344 114.976562 212.976562 L 158.203125 212.976562 " fill-opacity="1" fill-rule="nonzero"/></g><g clip-path="url(#id5)"><path fill="#1a1a1a" d="M 223.253906 178.417969 L 180.824219 251.917969 C 207.960938 251.890625 231.71875 237.457031 244.867188 215.851562 L 223.253906 178.417969 " fill-opacity="1" fill-rule="nonzero"/></g><g clip-path="url(#id6)"><path fill="#1a1a1a" d="M 200.707031 214.476562 L 115.824219 214.476562 C 128.542969 236.414062 152.058594 251.3125 179.105469 251.898438 L 200.707031 214.476562 " fill-opacity="1" fill-rule="nonzero"/></g><g clip-path="url(#id7)"><path fill="#cb10be" d="M 180.738281 204.398438 C 165.582031 204.398438 153.253906 192.070312 153.253906 176.910156 C 153.253906 161.746094 165.582031 149.417969 180.738281 149.417969 C 195.894531 149.417969 208.230469 161.746094 208.230469 176.910156 C 208.230469 192.070312 195.894531 204.398438 180.738281 204.398438 Z M 180.738281 145.410156 C 163.371094 145.410156 149.246094 159.535156 149.246094 176.910156 C 149.246094 194.28125 163.371094 208.410156 180.738281 208.410156 C 198.117188 208.410156 212.234375 194.28125 212.234375 176.910156 C 212.238281 159.535156 198.117188 145.410156 180.738281 145.410156 " fill-opacity="1" fill-rule="nonzero"/></g><path fill="#cb10be" d="M 180.738281 200.261719 C 167.863281 200.261719 157.382812 189.789062 157.382812 176.910156 C 157.382812 164.027344 167.863281 153.558594 180.738281 153.558594 C 193.613281 153.558594 204.09375 164.027344 204.09375 176.910156 C 204.09375 189.789062 193.613281 200.261719 180.738281 200.261719 Z M 180.738281 152.847656 C 167.472656 152.847656 156.683594 163.640625 156.683594 176.910156 C 156.683594 190.175781 167.472656 200.96875 180.738281 200.96875 C 194.011719 200.96875 204.792969 190.175781 204.792969 176.910156 C 204.792969 163.640625 194.011719 152.847656 180.738281 152.847656 " fill-opacity="1" fill-rule="nonzero"/><path fill="#cb10be" d="M 180.738281 196.757812 C 169.804688 196.757812 160.894531 187.847656 160.894531 176.910156 C 160.894531 165.964844 169.804688 157.058594 180.738281 157.058594 C 191.691406 157.058594 200.582031 165.964844 200.582031 176.910156 C 200.589844 187.847656 191.691406 196.757812 180.738281 196.757812 Z M 180.738281 154.980469 C 168.648438 154.980469 158.8125 164.824219 158.8125 176.910156 C 158.8125 189.007812 168.648438 198.832031 180.738281 198.832031 C 192.832031 198.832031 202.675781 189.007812 202.675781 176.910156 C 202.675781 164.824219 192.832031 154.980469 180.738281 154.980469 " fill-opacity="1" fill-rule="nonzero"/><path fill="#cb10be" d="M 179.101562 161.511719 L 179.09375 161.511719 C 178.972656 161.511719 178.859375 161.523438 178.742188 161.554688 C 171.796875 162.445312 166.273438 167.964844 165.390625 174.921875 C 165.371094 175.03125 165.359375 175.148438 165.359375 175.257812 C 165.359375 176.164062 166.101562 176.910156 167.007812 176.910156 L 171.835938 176.910156 C 172.632812 176.910156 173.289062 176.339844 173.445312 175.601562 L 173.445312 175.589844 C 173.988281 172.617188 176.28125 170.269531 179.230469 169.660156 C 179.234375 169.671875 179.246094 169.660156 179.246094 169.660156 C 179.328125 169.644531 179.429688 169.625 179.515625 169.617188 C 180.222656 169.4375 180.738281 168.789062 180.738281 168.027344 L 180.738281 163.15625 C 180.738281 162.242188 180.011719 161.523438 179.101562 161.511719 " fill-opacity="1" fill-rule="nonzero"/><path fill="#cb10be" d="M 180.738281 171.527344 C 183.707031 171.527344 186.121094 173.9375 186.121094 176.910156 C 186.121094 179.878906 183.707031 182.285156 180.738281 182.285156 C 177.769531 182.285156 175.363281 179.878906 175.363281 176.910156 C 175.363281 173.9375 177.769531 171.527344 180.738281 171.527344 " fill-opacity="1" fill-rule="nonzero"/><path fill="#cb10be" d="M 188.207031 182.753906 C 189.027344 182.753906 189.699219 183.425781 189.699219 184.253906 C 189.699219 185.082031 189.027344 185.746094 188.207031 185.746094 C 187.378906 185.746094 186.707031 185.082031 186.707031 184.253906 C 186.707031 183.425781 187.378906 182.753906 188.207031 182.753906 " fill-opacity="1" fill-rule="nonzero"/><path fill="#cb10be" d="M 192.960938 187.511719 C 193.464844 187.511719 193.871094 187.921875 193.871094 188.425781 C 193.871094 188.929688 193.464844 189.335938 192.960938 189.335938 C 192.457031 189.335938 192.046875 188.929688 192.046875 188.425781 C 192.046875 187.921875 192.457031 187.511719 192.960938 187.511719 " fill-opacity="1" fill-rule="nonzero"/><g fill="#1a1a1a" fill-opacity="1"><g transform="translate(131.063969, 278.615226)"><g><path d="M 4.648438 -0.585938 C 8.003906 0.964844 13.035156 -0.660156 14.40625 -5.234375 C 14.941406 -7.039062 14.8125 -9.273438 13.644531 -11.230469 C 12.859375 -12.628906 11.460938 -13.847656 10.367188 -14.457031 C 9.910156 -14.738281 9.375 -14.636719 9.019531 -14.941406 C 7.800781 -15.90625 5.945312 -15.375 4.546875 -14.304688 C 2.285156 -12.5 0.636719 -9.503906 0.636719 -6.9375 C 0.636719 -4.292969 2.082031 -1.753906 4.648438 -0.585938 Z M 4.648438 -0.585938 "/></g></g></g><g fill="#1a1a1a" fill-opacity="1"><g transform="translate(146.409339, 278.615226)"><g><path d="M 3 0 C 3.8125 0 4.394531 -0.535156 4.394531 -1.652344 C 4.015625 -5.488281 4.066406 -5.210938 4.039062 -5.617188 C 4.625 -5.691406 5.894531 -6.988281 6.960938 -7.980469 C 8.4375 -5.945312 9.628906 -3.734375 10.546875 -1.398438 C 10.773438 -0.789062 11.003906 0 11.738281 0 C 12.476562 0 13.035156 -0.636719 13.035156 -1.296875 C 13.035156 -1.980469 11.511719 -5.464844 9.730469 -8.105469 C 9.324219 -8.742188 8.664062 -9.527344 8.664062 -9.65625 C 8.664062 -9.832031 11.433594 -12.375 12.144531 -13.695312 C 12.476562 -14.355469 11.96875 -15.320312 11.003906 -15.320312 C 10.265625 -15.320312 9.78125 -14.507812 9.324219 -13.949219 C 7.648438 -11.96875 5.820312 -10.113281 3.886719 -8.386719 C 3.785156 -10.367188 3.734375 -12.347656 3.710938 -14.332031 C 3.683594 -15.347656 3.8125 -16.871094 2.414062 -16.871094 C 1.449219 -16.871094 1.269531 -16.085938 1.269531 -15.21875 C 1.269531 -15.703125 1.523438 -8.691406 1.550781 -7.980469 C 1.625 -6.046875 1.753906 -4.117188 1.90625 -2.210938 C 1.980469 -1.371094 2.007812 0 3 0 Z M 3 0 "/></g></g></g><g fill="#1a1a1a" fill-opacity="1"><g transform="translate(160.077898, 278.615226)"><g><path d="M 10.085938 -0.0507812 C 10.851562 -0.0507812 11.28125 -0.40625 11.28125 -1.167969 C 11.28125 -1.449219 10.902344 -4.167969 10.621094 -5.566406 C 10.648438 -6.683594 9.019531 -11.484375 8.539062 -12.679688 C 8.460938 -12.910156 8.386719 -13.164062 8.285156 -13.441406 C 8.003906 -14.382812 7.621094 -15.578125 6.988281 -16.058594 C 6.808594 -16.210938 6.605469 -16.289062 6.402344 -16.289062 C 6.226562 -16.289062 6.074219 -16.238281 5.894531 -16.160156 C 5.742188 -16.109375 5.589844 -16.058594 5.464844 -16.035156 C 5.183594 -15.984375 4.929688 -15.933594 4.75 -15.679688 C 4.140625 -14.941406 3.785156 -13.847656 3.480469 -12.859375 L 3.253906 -12.171875 C 2.820312 -10.953125 2.488281 -9.707031 2.210938 -8.511719 C 1.90625 -7.265625 1.703125 -6.023438 1.574219 -4.75 L 1.5 -4.191406 C 1.421875 -3.457031 1.320312 -2.667969 1.320312 -1.90625 C 1.320312 -1.601562 1.347656 -1.320312 1.371094 -1.042969 C 1.449219 -0.484375 1.929688 -0.078125 2.617188 -0.078125 C 3.175781 -0.078125 3.761719 -0.382812 3.863281 -1.042969 C 3.914062 -1.347656 3.914062 -1.828125 3.9375 -2.335938 C 3.9375 -2.820312 3.964844 -3.304688 3.988281 -3.710938 L 3.988281 -4.039062 C 3.988281 -4.371094 3.988281 -4.574219 4.523438 -4.574219 C 5.515625 -4.597656 5.972656 -4.597656 6.503906 -4.574219 L 7.546875 -4.574219 C 8.003906 -4.574219 8.234375 -4.699219 8.386719 -4.089844 L 8.460938 -3.304688 C 8.5625 -1.957031 8.714844 -0.0507812 10.085938 -0.0507812 Z M 10.085938 -0.0507812 "/></g></g></g><g fill="#1a1a1a" fill-opacity="1"><g transform="translate(172.04424, 278.615226)"><g><path d="M 7.980469 -0.152344 C 8.792969 -0.152344 9.402344 -0.789062 9.324219 -1.550781 L 8.410156 -9.121094 C 8.410156 -9.171875 14.253906 -14.355469 14.253906 -16.667969 C 14.253906 -17.40625 13.621094 -17.785156 13.085938 -17.785156 C 11.890625 -17.785156 11.105469 -15.933594 10.546875 -15.144531 C 9.578125 -13.824219 8.410156 -12.601562 7.242188 -11.484375 C 6.351562 -12.578125 5.488281 -13.644531 4.597656 -14.710938 C 3.988281 -15.476562 3.023438 -17.378906 1.828125 -17.378906 C 1.144531 -17.378906 0.558594 -16.820312 0.558594 -16.109375 C 0.558594 -15.5 1.09375 -14.992188 1.449219 -14.558594 C 2.363281 -13.441406 3.328125 -12.296875 5.617188 -9.453125 C 6.046875 -8.945312 5.972656 -8.183594 6.046875 -7.519531 C 6.226562 -5.996094 6.378906 -5.03125 6.554688 -3.507812 C 6.65625 -2.59375 6.480469 -0.152344 7.980469 -0.152344 Z M 7.980469 -0.152344 "/></g></g></g><g fill="#1a1a1a" fill-opacity="1"><g transform="translate(186.856076, 278.615226)"><g/></g></g><g fill="#1a1a1a" fill-opacity="1"><g transform="translate(193.207638, 278.615226)"><g><path d="M 6.25 0 C 7.0625 0 7.75 -0.6875 7.648438 -1.5 C 7.039062 -6.328125 7.214844 -7.367188 7.214844 -12.121094 C 7.214844 -13.085938 8.285156 -12.882812 9.628906 -12.984375 C 10.597656 -13.085938 12.398438 -13.136719 12.398438 -14.40625 C 12.398438 -15.09375 11.992188 -15.679688 11.230469 -15.601562 C 9.984375 -15.476562 8.742188 -15.375 7.496094 -15.246094 C 7.546875 -15.628906 7.648438 -16.160156 7.648438 -16.644531 C 7.648438 -17.378906 7.445312 -18.042969 6.605469 -18.042969 C 6.023438 -18.042969 5.414062 -17.683594 5.234375 -17.074219 C 5.132812 -16.667969 5.054688 -15.144531 5.03125 -15.015625 C 4.625 -14.964844 4.21875 -14.941406 3.835938 -14.890625 C 2.769531 -14.789062 0.636719 -14.890625 0.636719 -13.417969 C 0.636719 -12.449219 1.347656 -12.195312 2.234375 -12.195312 C 3.175781 -12.195312 4.269531 -12.476562 4.828125 -12.527344 C 4.648438 -9.757812 4.726562 -6.046875 5.054688 -2.59375 C 5.160156 -1.726562 5.003906 0 6.25 0 Z M 6.25 0 "/></g></g></g><g fill="#1a1a1a" fill-opacity="1"><g transform="translate(205.60588, 278.615226)"><g><path d="M 13.898438 -9.679688 C 13.898438 -11.003906 13.773438 -14.027344 13.621094 -15.933594 C 13.542969 -16.71875 13.542969 -17.609375 12.679688 -17.886719 C 12.550781 -17.914062 12.398438 -17.941406 12.273438 -17.941406 C 11.816406 -17.941406 11.359375 -17.761719 11.078125 -17.378906 C 10.851562 -17.101562 10.773438 -16.695312 10.773438 -16.289062 C 10.773438 -15.628906 10.976562 -14.890625 11.003906 -14.355469 C 11.105469 -12.804688 11.15625 -11.28125 11.15625 -9.730469 C 10.113281 -9.882812 9.046875 -9.984375 7.980469 -10.035156 C 7.039062 -10.085938 5.769531 -10.292969 4.851562 -10.035156 C 4.902344 -11.6875 4.929688 -13.925781 4.828125 -15.855469 C 4.800781 -16.769531 4.625 -17.863281 3.609375 -17.863281 C 3.507812 -17.863281 3.40625 -17.863281 3.277344 -17.835938 C 2.261719 -17.660156 2.109375 -16.898438 2.109375 -16.085938 C 2.109375 -15.882812 2.210938 -13.390625 2.210938 -12.398438 C 2.210938 -10.011719 1.980469 -6.226562 1.523438 -3.152344 C 1.449219 -2.644531 1.269531 -2.007812 1.269531 -1.421875 C 1.269531 -0.8125 1.472656 -0.304688 2.160156 -0.078125 C 2.335938 -0.0273438 2.515625 0 2.667969 0 C 3.457031 0 3.914062 -0.710938 4.039062 -1.550781 C 4.371094 -3.558594 4.574219 -5.589844 4.726562 -7.648438 C 5.105469 -7.394531 5.617188 -7.367188 6.074219 -7.367188 C 7.46875 -7.367188 9.476562 -7.214844 10.265625 -7.113281 C 10.824219 -7.039062 11.054688 -7.214844 11.054688 -6.582031 C 11.027344 -6.226562 10.851562 -2.03125 10.851562 -2.464844 C 10.851562 -1.804688 11.027344 -1.195312 11.816406 -0.941406 C 11.96875 -0.890625 12.121094 -0.863281 12.273438 -0.863281 C 12.910156 -0.863281 13.492188 -1.296875 13.542969 -2.007812 C 13.671875 -3.378906 13.773438 -6.554688 13.773438 -6.859375 C 14 -6.960938 14.152344 -7.140625 14.28125 -7.34375 C 14.433594 -7.570312 14.507812 -7.851562 14.507812 -8.132812 C 14.507812 -9.019531 13.898438 -8.996094 13.898438 -9.679688 Z M 13.898438 -9.679688 "/></g></g></g><g fill="#1a1a1a" fill-opacity="1"><g transform="translate(220.748003, 278.615226)"><g><path d="M 6.554688 0 C 7.570312 0 8.410156 -0.28125 8.410156 -1.398438 C 8.410156 -2.007812 7.980469 -2.488281 7.34375 -2.539062 C 6.835938 -2.59375 4.675781 -2.820312 4.269531 -2.847656 C 3.660156 -2.898438 3.835938 -2.796875 3.8125 -6.378906 C 3.835938 -6.9375 4.066406 -6.808594 4.574219 -6.910156 C 5.4375 -7.039062 7.140625 -6.707031 7.140625 -8.15625 C 7.140625 -8.511719 6.988281 -8.894531 6.757812 -9.148438 C 6.453125 -9.476562 6.046875 -9.605469 5.589844 -9.605469 C 5.003906 -9.605469 4.371094 -9.402344 3.863281 -9.324219 C 3.914062 -10.496094 3.964844 -11.636719 4.039062 -12.804688 C 4.066406 -13.441406 5.082031 -13.621094 5.996094 -13.621094 C 6.65625 -13.621094 7.214844 -13.492188 7.445312 -13.492188 C 8.183594 -13.492188 8.613281 -14.152344 8.613281 -14.8125 C 8.613281 -15.296875 8.359375 -15.804688 7.800781 -15.984375 C 6.683594 -16.3125 5.539062 -16.1875 4.320312 -15.933594 C 3.480469 -15.753906 1.878906 -15.320312 1.625 -14.382812 C 1.167969 -12.730469 1.269531 -3.988281 1.371094 -1.878906 C 1.421875 -0.710938 2.847656 -0.433594 3.734375 -0.355469 C 4.371094 -0.28125 5.539062 0 6.554688 0 Z M 6.554688 0 "/></g></g></g><g fill="#1a1a1a" fill-opacity="1"><g transform="translate(229.99587, 278.615226)"><g><path d="M 3.152344 0 C 4.726562 0 4.269531 -1.703125 4.191406 -2.921875 C 4.015625 -5.261719 3.9375 -7.621094 3.9375 -9.960938 C 6.023438 -7.316406 7.929688 -4.546875 9.605469 -1.625 C 9.960938 -1.015625 10.621094 -0.433594 11.332031 -0.433594 C 12.195312 -0.433594 12.652344 -1.066406 12.652344 -2.363281 C 12.652344 -3.175781 12.5 -4.089844 12.476562 -4.625 C 12.347656 -8.207031 12.222656 -11.816406 12.121094 -15.425781 L 12.121094 -16.238281 C 12.121094 -17.40625 11.917969 -18.347656 10.699219 -18.347656 C 9.984375 -18.347656 9.375 -17.863281 9.425781 -17.074219 C 9.527344 -13.492188 9.65625 -9.933594 9.78125 -6.351562 C 8.589844 -8.132812 7.34375 -9.882812 5.996094 -11.585938 C 5.515625 -12.195312 4.851562 -13.492188 3.988281 -13.59375 C 4.089844 -15.066406 4.445312 -16.820312 2.820312 -16.820312 C 1.652344 -16.820312 1.347656 -15.90625 1.347656 -14.761719 L 1.347656 -13.875 C 1.246094 -11.15625 1.246094 -6.9375 1.523438 -3.355469 C 1.601562 -2.160156 1.371094 0 3.152344 0 Z M 3.152344 0 "/></g></g></g></svg>